{"title":"Transcendence 2014 Cam XviD MP3 - Idiocracy","uid":10316687,"size":1010219008,"categoryP":"video","categoryS":"movies","magnet":"?xt=urn:btih:5ef3c418df33d2080f29c6e2777e665ef8ef0f56&amp;dn=Transcendence+2014+Cam+XviD+MP3+-+Idiocracy&amp;tr=udp%3A%2F%2Ftracker.openbittorrent.com%3A80&amp;tr=udp%3A%2F%2Fopen.demonii.com%3A1337&amp;tr=udp%3A%2F%2Ftracker.coppersurfer.tk%3A6969&amp;tr=udp%3A%2F%2Fexodus.desync.com%3A6969","seeders":1,"leechers":0,"uploader":"Satafakap","files":2,"time":1402252993,"description":"General\n\nComplete name       : Transcendence.2014.Cam.XviD.MP3-Idiocracy.avi\nFormat              : AVI\nFormat/Info         : Audio Video Interleave\nFile size           : 954 MiB\nDuration            : 1h 51mn\nOverall bit rate    : 1 197 Kbps\nWriting application : VirtualDubMod 1.5.10.3 | www.virtualdub-fr.org || (build\n                      2550/release)\nWriting library     : VirtualDubMod build 2550/release\nSample              : Yes\nSource              : Transcendence.2014.CAM.V2.NEW.VIDEO.AND.AUDIO.XviD.MP3-RARBG \n                      - Thanks\n\nVideo\n\nID                                       : 0\nFormat                                   : MPEG-4 Visual\nFormat profile                           : Advanced Simple@L5\nFormat settings, BVOP                    : 2\nFormat settings, QPel                    : No\nFormat settings, GMC                     : No warppoints\nFormat settings, Matrix                  : Default (H.263)\nCodec ID                                 : XVID\nCodec ID/Hint                            : XviD\nDuration                                 : 1h 51mn\nBit rate                                 : 1 059 Kbps\nWidth                                    : 720 pixels\nHeight                                   : 304 pixels\nDisplay aspect ratio                     : 2.35:1\nFrame rate                               : 23.976 fps\nColor space                              : YUV\nChroma subsampling                       : 4:2:0\nBit depth                                : 8 bits\nScan type                                : Progressive\nCompression mode                         : Lossy\nBits/(Pixel*Frame)                       : 0.202\nStream size                              : 844 MiB (89%)\nWriting library                          : XviD 1.2.1 (UTC 2008-12-04)\n\nAudio\n\nID                                       : 1\nFormat                                   : MPEG Audio\nFormat version                           : Version 1\nFormat profile                           : Layer 3\nCodec ID                                 : 55\nCodec ID/Hint                            : MP3\nDuration                                 : 1h 51mn\nBit rate mode                            : Constant\nBit rate                                 : 128 Kbps\nChannel(s)                               : 2 channels\nSampling rate                            : 44.1 KHz\nCompression mode                         : Lossy\nStream size                              : 102 MiB (11%)\nAlignment                                : Split accross interleaves\nInterleave, duration                     : 42 ms (1.00 video frame)\nInterleave, preload duration             : 500 ms\nWriting library                          : LAME3.99r\nEncoding settings                        : -m s -V 4 -q 0 -lowpass 17 -b 128","torrent":{"xt":"urn:btih:5ef3c418df33d2080f29c6e2777e665ef8ef0f56","amp;dn":"Transcendence+2014+Cam+XviD+MP3+-+Idiocracy","amp;tr":["udp%3A%2F%2Ftracker.openbittorrent.com%3A80","udp%3A%2F%2Fopen.demonii.com%3A1337","udp%3A%2F%2Ftracker.coppersurfer.tk%3A6969","udp%3A%2F%2Fexodus.desync.com%3A6969"],"infoHash":"5ef3c418df33d2080f29c6e2777e665ef8ef0f56","infoHashBuffer":{"type":"Buffer","data":[94,243,196,24,223,51,210,8,15,41,198,226,119,126,102,94,248,239,15,86]},"announce":[],"urlList":[]}}